<svg xmlns="http://www.w3.org/2000/svg" style="display: none;">
  <symbol id="services-icon" viewBox="0 0 24 24">
    <path fill="currentColor" d="M12 1L3 5v6c0 5.55 3.84 10.74 9 12 5.16-1.26 9-6.45 9-12V5l-9-4zm0 2.18l7 3.12v4.7c0 4.67-3.13 8.95-7 10.18-3.87-1.23-7-5.51-7-10.18V6.3l7-3.12z"/>
    <path fill="currentColor" d="M12 6a3.5 3.5 0 0 0-3.5 3.5c0 1.93 1.57 3.5 3.5 3.5s3.5-1.57 3.5-3.5S13.93 6 12 6z"/>
  </symbol>
  
  <symbol id="technical-icon" viewBox="0 0 24 24">
    <path fill="currentColor" d="M20 5H4c-1.1 0-2 .9-2 2v10c0 1.1.9 2 2 2h16c1.1 0 2-.9 2-2V7c0-1.1-.9-2-2-2zm0 12H4V7h16v10z"/>
    <path fill="currentColor" d="M8.29 15.71L12 12l-3.71-3.71-1.41 1.41L9.17 12l-2.29 2.29 1.41 1.42z"/>
  </symbol>
  
  <symbol id="support-icon" viewBox="0 0 24 24">
    <path fill="currentColor" d="M12 2C6.48 2 2 6.48 2 12s4.48 10 10 10 10-4.48 10-10S17.52 2 12 2zm0 18c-4.41 0-8-3.59-8-8s3.59-8 8-8 8 3.59 8 8-3.59 8-8 8z"/>
    <path fill="currentColor" d="M11 7h2v6h-2zm0 8h2v2h-2z"/>
  </symbol>
</svg>